<svg xmlns="http://www.w3.org/2000/svg" width="800" height="260" viewBox="0 0 800 260">
  <defs>
    <linearGradient id="bg" x1="0%" y1="0%" x2="100%" y2="100%">
      <stop offset="0%" style="stop-color:#080f1c"/>
      <stop offset="100%" style="stop-color:#0d1e35"/>
    </linearGradient>
    <linearGradient id="panel" x1="0%" y1="0%" x2="100%" y2="100%">
      <stop offset="0%" style="stop-color:#101e30"/>
      <stop offset="100%" style="stop-color:#162840"/>
    </linearGradient>
    <linearGradient id="bar1" x1="0%" y1="0%" x2="100%" y2="0%">
      <stop offset="0%" style="stop-color:#39FF14"/>
      <stop offset="100%" style="stop-color:#1fa30d"/>
    </linearGradient>
    <linearGradient id="bar2" x1="0%" y1="0%" x2="100%" y2="0%">
      <stop offset="0%" style="stop-color:#f59e0b"/>
      <stop offset="100%" style="stop-color:#d97706"/>
    </linearGradient>
    <linearGradient id="bar3" x1="0%" y1="0%" x2="100%" y2="0%">
      <stop offset="0%" style="stop-color:#ef4444"/>
      <stop offset="100%" style="stop-color:#dc2626"/>
    </linearGradient>
  </defs>

  <!-- Background -->
  <rect width="800" height="260" fill="url(#bg)"/>

  <!-- Left sidebar -->
  <rect x="0" y="0" width="180" height="260" fill="rgba(8,15,28,0.9)"/>
  <rect x="0" y="0" width="3" height="260" fill="rgba(57,255,20,0.4)"/>

  <!-- Sidebar logo area -->
  <rect x="18" y="20" width="144" height="36" rx="6" fill="rgba(28,101,140,0.3)"/>
  <rect x="26" y="28" width="20" height="20" rx="4" fill="#1C658C"/>
  <rect x="30" y="32" width="12" height="12" rx="2" fill="#39FF14" opacity="0.7"/>
  <text x="54" y="37" font-family="'Segoe UI', Arial, sans-serif" font-size="9" font-weight="700" fill="rgba(255,255,255,0.8)">AI Governance</text>
  <text x="54" y="50" font-family="'Segoe UI', Arial, sans-serif" font-size="8" fill="rgba(255,255,255,0.4)">Copilot v1.0</text>

  <!-- Sidebar nav items -->
  <rect x="12" y="72" width="156" height="28" rx="5" fill="rgba(57,255,20,0.12)"/>
  <rect x="22" y="82" width="8" height="8" rx="2" fill="#39FF14"/>
  <text x="38" y="91" font-family="'Segoe UI', Arial, sans-serif" font-size="10" fill="rgba(255,255,255,0.9)">Dashboard</text>

  <rect x="12" y="106" width="156" height="28" rx="5" fill="transparent"/>
  <rect x="22" y="116" width="8" height="8" rx="2" fill="rgba(255,255,255,0.3)"/>
  <text x="38" y="125" font-family="'Segoe UI', Arial, sans-serif" font-size="10" fill="rgba(255,255,255,0.5)">Policies</text>

  <rect x="12" y="140" width="156" height="28" rx="5" fill="transparent"/>
  <rect x="22" y="150" width="8" height="8" rx="2" fill="rgba(255,255,255,0.3)"/>
  <text x="38" y="159" font-family="'Segoe UI', Arial, sans-serif" font-size="10" fill="rgba(255,255,255,0.5)">Risk Tracking</text>

  <rect x="12" y="174" width="156" height="28" rx="5" fill="transparent"/>
  <rect x="22" y="184" width="8" height="8" rx="2" fill="rgba(255,255,255,0.3)"/>
  <text x="38" y="193" font-family="'Segoe UI', Arial, sans-serif" font-size="10" fill="rgba(255,255,255,0.5)">Audit Log</text>

  <rect x="12" y="208" width="156" height="28" rx="5" fill="transparent"/>
  <rect x="22" y="218" width="8" height="8" rx="2" fill="rgba(255,255,255,0.3)"/>
  <text x="38" y="227" font-family="'Segoe UI', Arial, sans-serif" font-size="10" fill="rgba(255,255,255,0.5)">RBAC</text>

  <!-- Main content area -->
  <rect x="186" y="0" width="614" height="260" fill="url(#bg)"/>

  <!-- Header bar -->
  <rect x="186" y="0" width="614" height="52" fill="rgba(8,15,28,0.95)"/>
  <rect x="186" y="52" width="614" height="1" fill="rgba(255,255,255,0.06)"/>
  <text x="204" y="30" font-family="'Segoe UI', Arial, sans-serif" font-size="14" font-weight="700" fill="rgba(255,255,255,0.9)">Governance Overview</text>
  <text x="204" y="46" font-family="'Segoe UI', Arial, sans-serif" font-size="9" fill="rgba(255,255,255,0.4)">All AI systems · Real-time monitoring</text>
  <rect x="660" y="14" width="112" height="24" rx="12" fill="rgba(57,255,20,0.15)"/>
  <rect x="668" y="22" width="8" height="8" rx="4" fill="#39FF14"/>
  <text x="682" y="30" font-family="'Segoe UI', Arial, sans-serif" font-size="10" fill="#39FF14">All Systems Monitored</text>

  <!-- KPI cards -->
  <rect x="198" y="66" width="115" height="58" rx="6" fill="url(#panel)"/>
  <text x="212" y="85" font-family="'Segoe UI', Arial, sans-serif" font-size="10" fill="rgba(255,255,255,0.5)">Compliance Score</text>
  <text x="212" y="108" font-family="'Segoe UI', Arial, sans-serif" font-size="22" font-weight="700" fill="#39FF14">94%</text>

  <rect x="323" y="66" width="115" height="58" rx="6" fill="url(#panel)"/>
  <text x="337" y="85" font-family="'Segoe UI', Arial, sans-serif" font-size="10" fill="rgba(255,255,255,0.5)">Active Policies</text>
  <text x="337" y="108" font-family="'Segoe UI', Arial, sans-serif" font-size="22" font-weight="700" fill="#ffffff">28</text>

  <rect x="448" y="66" width="115" height="58" rx="6" fill="url(#panel)"/>
  <text x="462" y="85" font-family="'Segoe UI', Arial, sans-serif" font-size="10" fill="rgba(255,255,255,0.5)">Open Risks</text>
  <text x="462" y="108" font-family="'Segoe UI', Arial, sans-serif" font-size="22" font-weight="700" fill="#f59e0b">3</text>

  <rect x="573" y="66" width="115" height="58" rx="6" fill="url(#panel)"/>
  <text x="587" y="85" font-family="'Segoe UI', Arial, sans-serif" font-size="10" fill="rgba(255,255,255,0.5)">Audit Events</text>
  <text x="587" y="108" font-family="'Segoe UI', Arial, sans-serif" font-size="22" font-weight="700" fill="#ffffff">142</text>

  <!-- Risk scoring chart -->
  <rect x="198" y="136" width="232" height="110" rx="6" fill="url(#panel)"/>
  <text x="212" y="154" font-family="'Segoe UI', Arial, sans-serif" font-size="10" font-weight="600" fill="rgba(255,255,255,0.7)">Risk by Department</text>
  <!-- Bars -->
  <rect x="216" y="196" width="160" height="8" rx="4" fill="rgba(255,255,255,0.07)"/>
  <rect x="216" y="196" width="148" height="8" rx="4" fill="url(#bar1)"/>
  <text x="212" y="192" font-family="'Segoe UI', Arial, sans-serif" font-size="9" fill="rgba(255,255,255,0.5)">Engineering</text>
  <text x="380" y="204" font-family="'Segoe UI', Arial, sans-serif" font-size="9" fill="rgba(255,255,255,0.6)">92%</text>

  <rect x="216" y="218" width="160" height="8" rx="4" fill="rgba(255,255,255,0.07)"/>
  <rect x="216" y="218" width="112" height="8" rx="4" fill="url(#bar2)"/>
  <text x="212" y="214" font-family="'Segoe UI', Arial, sans-serif" font-size="9" fill="rgba(255,255,255,0.5)">Legal</text>
  <text x="380" y="226" font-family="'Segoe UI', Arial, sans-serif" font-size="9" fill="rgba(255,255,255,0.6)">70%</text>

  <rect x="216" y="240" width="160" height="8" rx="4" fill="rgba(255,255,255,0.07)"/>
  <rect x="216" y="240" width="68" height="8" rx="4" fill="url(#bar3)"/>
  <text x="212" y="236" font-family="'Segoe UI', Arial, sans-serif" font-size="9" fill="rgba(255,255,255,0.5)">Marketing</text>
  <text x="380" y="248" font-family="'Segoe UI', Arial, sans-serif" font-size="9" fill="rgba(255,255,255,0.6)">42%</text>

  <!-- Policy list -->
  <rect x="440" y="136" width="248" height="110" rx="6" fill="url(#panel)"/>
  <text x="454" y="154" font-family="'Segoe UI', Arial, sans-serif" font-size="10" font-weight="600" fill="rgba(255,255,255,0.7)">Recent Policy Activity</text>
  <rect x="452" y="162" width="220" height="1" fill="rgba(255,255,255,0.06)"/>

  <rect x="452" y="170" width="8" height="8" rx="4" fill="#39FF14"/>
  <text x="466" y="179" font-family="'Segoe UI', Arial, sans-serif" font-size="9" fill="rgba(255,255,255,0.7)">AI Usage Policy v2.1 — Approved</text>
  <text x="596" y="179" font-family="'Segoe UI', Arial, sans-serif" font-size="8" fill="rgba(255,255,255,0.3)">2h ago</text>

  <rect x="452" y="192" width="8" height="8" rx="4" fill="#f59e0b"/>
  <text x="466" y="201" font-family="'Segoe UI', Arial, sans-serif" font-size="9" fill="rgba(255,255,255,0.7)">Data Retention Policy — Review</text>
  <text x="592" y="201" font-family="'Segoe UI', Arial, sans-serif" font-size="8" fill="rgba(255,255,255,0.3)">5h ago</text>

  <rect x="452" y="214" width="8" height="8" rx="4" fill="#39FF14"/>
  <text x="466" y="223" font-family="'Segoe UI', Arial, sans-serif" font-size="9" fill="rgba(255,255,255,0.7)">Model Governance v1.0 — Approved</text>
  <text x="596" y="223" font-family="'Segoe UI', Arial, sans-serif" font-size="8" fill="rgba(255,255,255,0.3)">1d ago</text>

  <rect x="452" y="236" width="8" height="8" rx="4" fill="#ef4444"/>
  <text x="466" y="245" font-family="'Segoe UI', Arial, sans-serif" font-size="9" fill="rgba(255,255,255,0.7)">Third-Party AI Policy — Flagged</text>
  <text x="590" y="245" font-family="'Segoe UI', Arial, sans-serif" font-size="8" fill="rgba(255,255,255,0.3)">2d ago</text>
</svg>
